<svg fill="#ffffff" xmlns="http://www.w3.org/2000/svg"  viewBox="0 0 50 50" width="50px" height="50px"><path d="M 9 4 C 6.2504839 4 4 6.2504839 4 9 L 4 41 C 4 43.749516 6.2504839 46 9 46 L 41 46 C 43.749516 46 46 43.749516 46 41 L 46 9 C 46 6.2504839 43.749516 4 41 4 L 9 4 z M 9 6 L 41 6 C 42.668484 6 44 7.3315161 44 9 L 44 41 C 44 42.668484 42.668484 44 41 44 L 9 44 C 7.3315161 44 6 42.668484 6 41 L 6 9 C 6 7.3315161 7.3315161 6 9 6 z M 17.003906 12 A 1.0001 1.0001 0 0 0 16 13 L 16 36 A 1.0001 1.0001 0 0 0 17 37 L 26.570312 37 C 28.269662 37 29.691109 36.852029 30.875 36.533203 A 1.0001 1.0001 0 0 0 30.876953 36.533203 C 32.064206 36.209914 33.166226 35.665602 34.152344 34.914062 C 35.013367 34.257936 35.716916 33.422491 36.222656 32.429688 L 36.222656 32.427734 C 36.749269 31.402129 37 30.226881 37 28.955078 C 37 27.205465 36.478885 25.667802 35.410156 24.541016 C 34.725861 23.818356 33.842697 23.32665 32.882812 22.939453 C 33.261939 22.639106 33.655751 22.355089 33.9375 21.925781 C 34.621368 20.887534 34.970703 19.675758 34.970703 18.378906 C 34.970703 16.817347 34.404376 15.522732 33.541016 14.603516 C 32.677655 13.684299 31.564507 13.122184 30.447266 12.753906 C 28.214755 12.018 25.871253 12.035124 25.003906 12.035156 L 25 12.035156 L 17.003906 12 z M 18 14.003906 L 24.996094 14.035156 A 1.0001 1.0001 0 0 0 25 14.035156 C 25.8655 14.035156 28.002544 14.053146 29.820312 14.652344 C 30.729198 14.951941 31.533985 15.391107 32.082031 15.974609 C 32.630077 16.558112 32.970703 17.268966 32.970703 18.378906 C 32.970703 19.332054 32.73771 20.110466 32.267578 20.824219 A 1.0001 1.0001 0 0 0 32.265625 20.826172 C 31.904709 21.376945 30.935294 21.966149 29.996094 22.349609 A 1.0001 1.0001 0 0 0 30.226562 24.265625 L 30.990234 24.378906 C 32.28399 24.646878 33.24219 25.159035 33.958984 25.916016 C 34.641524 26.635073 35 27.579325 35 28.955078 C 35 29.968594 34.806121 30.809667 34.443359 31.515625 A 1.0001 1.0001 0 0 0 34.441406 31.519531 C 34.067291 32.255008 33.573298 32.839256 32.939453 33.322266 C 32.152762 33.921818 31.296531 34.344737 30.355469 34.601562 C 29.415407 34.854743 28.150963 35 26.570312 35 L 18 35 L 18 14.003906 z M 22 17 L 22 23 L 26 23 C 27.64497 23 29 21.64497 29 20 C 29 18.35503 27.64497 17 26 17 L 22 17 z M 24 19 L 26 19 C 26.56503 19 27 19.43497 27 20 C 27 20.56503 26.56503 21 26 21 L 24 21 L 24 19 z M 22 25 L 22 31.994141 L 27.5 32 C 29.421188 32 31 30.421188 31 28.5 C 31 26.578812 29.421188 25 27.5 25 L 22 25 z M 24 27 L 27.5 27 C 28.340812 27 29 27.659188 29 28.5 C 29 29.340812 28.340812 30 27.5 30 L 24 29.996094 L 24 27 z"/></svg>